<?xml version="1.0" encoding="UTF-8" standalone="no"?>
<!DOCTYPE svg PUBLIC "-//W3C//DTD SVG 1.1//EN" "http://www.w3.org/Graphics/SVG/1.1/DTD/svg11.dtd">
<svg width="100%" height="100%" viewBox="0 0 128 128" version="1.1" xmlns="http://www.w3.org/2000/svg" xmlns:xlink="http://www.w3.org/1999/xlink" xml:space="preserve" xmlns:serif="http://www.serif.com/" style="fill-rule:evenodd;clip-rule:evenodd;stroke-linejoin:round;stroke-miterlimit:2;">
    <path d="M52.983,127.053C22.905,121.828 0,95.568 0,64C0,28.677 28.677,0 64,0C99.323,0 128,28.677 128,64C128,96.712 103.404,123.725 71.709,127.539L71.709,80.973L86.366,80.973L88.692,62.281L71.705,62.281L71.705,49.403C71.709,44.001 73.164,40.303 80.692,40.303L90.292,40.303L90.292,23.583C88.635,23.355 82.939,22.842 76.306,22.842C62.464,22.842 52.983,31.548 52.983,47.55L52.983,62.276L37.708,62.276L37.708,80.968L52.983,80.968L52.983,127.053Z" style="fill:rgb(42,42,42);"/>
</svg>
