<?xml version="1.0" encoding="UTF-8" standalone="no"?>
<!DOCTYPE svg PUBLIC "-//W3C//DTD SVG 1.1//EN" "http://www.w3.org/Graphics/SVG/1.1/DTD/svg11.dtd">
<svg width="100%" height="100%" viewBox="0 0 128 128" version="1.1" xmlns="http://www.w3.org/2000/svg" xmlns:xlink="http://www.w3.org/1999/xlink" xml:space="preserve" xmlns:serif="http://www.serif.com/" style="fill-rule:evenodd;clip-rule:evenodd;stroke-linejoin:round;stroke-miterlimit:2;">
    <path d="M64,0C99.323,0 128,28.677 128,64C128,99.323 99.323,128 64,128C28.677,128 0,99.323 0,64C0,28.677 28.677,0 64,0ZM64.01,31.142C45.863,31.142 31.171,45.85 31.171,63.981C31.171,82.128 45.879,96.82 64.01,96.82C82.157,96.82 96.849,82.112 96.849,63.981C96.849,45.834 82.141,31.142 64.01,31.142ZM64.01,85.296C52.23,85.296 42.695,75.755 42.695,63.981C42.695,52.206 52.235,42.666 64.01,42.666C75.785,42.666 85.325,52.206 85.325,63.981C85.33,75.755 75.79,85.296 64.01,85.296ZM98.15,22.172C102.385,22.172 105.824,25.611 105.824,29.846C105.824,34.081 102.385,37.52 98.15,37.52C93.915,37.52 90.476,34.081 90.476,29.846C90.476,25.611 93.915,22.172 98.15,22.172Z" style="fill:rgb(42,42,42);"/>
</svg>
