<?xml version="1.0" encoding="UTF-8" standalone="no"?>
<!DOCTYPE svg PUBLIC "-//W3C//DTD SVG 1.1//EN" "http://www.w3.org/Graphics/SVG/1.1/DTD/svg11.dtd">
<svg width="100%" height="100%" viewBox="0 0 1000 618" version="1.1" xmlns="http://www.w3.org/2000/svg" xmlns:xlink="http://www.w3.org/1999/xlink" xml:space="preserve" xmlns:serif="http://www.serif.com/" style="fill-rule:evenodd;clip-rule:evenodd;stroke-linejoin:round;stroke-miterlimit:2;">
    <g transform="matrix(1,0,0,1,0,-79)">
        <g id="rect19" transform="matrix(1,0,0,1,0,79)">
            <rect x="364" y="66.1" width="270.4" height="485.8" style="fill:rgb(255,90,0);"/>
        </g>
        <g id="XMLID_330_" transform="matrix(1,0,0,1,0,79)">
            <path d="M382,309C382,210.3 428.4,122.7 499.6,66.1C447.2,24.9 381.1,0 309,0C138.2,0 0,138.2 0,309C0,479.8 138.2,618 309,618C381.1,618 447.2,593.1 499.6,551.9C428.3,496.1 382,407.7 382,309Z" style="fill:rgb(235,0,27);fill-rule:nonzero;"/>
        </g>
        <g id="path22" transform="matrix(1,0,0,1,0,79)">
            <path d="M999.2,309C999.2,479.8 861,618 690.2,618C618.1,618 552,593.1 499.6,551.9C571.7,495.2 617.2,407.7 617.2,309C617.2,210.3 570.8,122.7 499.6,66.1C551.9,24.9 618,0 690.1,0C861,0 999.2,139.1 999.2,309Z" style="fill:rgb(247,158,27);fill-rule:nonzero;"/>
        </g>
    </g>
</svg>
