<?xml version="1.0" encoding="UTF-8" standalone="no"?>
<!DOCTYPE svg PUBLIC "-//W3C//DTD SVG 1.1//EN" "http://www.w3.org/Graphics/SVG/1.1/DTD/svg11.dtd">
<svg width="100%" height="100%" viewBox="0 0 128 128" version="1.1" xmlns="http://www.w3.org/2000/svg" xmlns:xlink="http://www.w3.org/1999/xlink" xml:space="preserve" xmlns:serif="http://www.serif.com/" style="fill-rule:evenodd;clip-rule:evenodd;stroke-linejoin:round;stroke-miterlimit:2;">
    <g transform="matrix(1.14137,0,0,1.14137,-9.04788,-9.04788)">
        <g transform="matrix(2.87553,0,0,2.73526,-115.721,-54.9838)">
            <ellipse cx="62.5" cy="43.5" rx="19.5" ry="20.5" style="fill:white;"/>
        </g>
        <g transform="matrix(0.866025,0.5,-0.5,0.866025,40.5744,-23.4256)">
            <path d="M64,28.5C83.593,28.5 99.5,44.407 99.5,64C99.5,83.593 83.593,99.5 64,99.5C44.407,99.5 28.5,83.593 28.5,64C28.5,44.407 44.407,28.5 64,28.5ZM64,39.5C77.522,39.5 88.5,50.478 88.5,64C88.5,77.522 77.522,88.5 64,88.5C50.478,88.5 39.5,77.522 39.5,64C39.5,50.478 50.478,39.5 64,39.5Z" style="fill:url(#_Linear1);"/>
        </g>
    </g>
    <defs>
        <linearGradient id="_Linear1" x1="0" y1="0" x2="1" y2="0" gradientUnits="userSpaceOnUse" gradientTransform="matrix(71,0,0,71,28.5,64)"><stop offset="0" style="stop-color:rgb(174,55,172);stop-opacity:1"/><stop offset="0.5" style="stop-color:rgb(251,80,66);stop-opacity:1"/><stop offset="1" style="stop-color:rgb(255,168,21);stop-opacity:1"/></linearGradient>
    </defs>
</svg>
