<?xml version="1.0" encoding="UTF-8" standalone="no"?>
<!DOCTYPE svg PUBLIC "-//W3C//DTD SVG 1.1//EN" "http://www.w3.org/Graphics/SVG/1.1/DTD/svg11.dtd">
<svg width="100%" height="100%" viewBox="0 0 128 128" version="1.1" xmlns="http://www.w3.org/2000/svg" xmlns:xlink="http://www.w3.org/1999/xlink" xml:space="preserve" xmlns:serif="http://www.serif.com/" style="fill-rule:evenodd;clip-rule:evenodd;stroke-linejoin:round;stroke-miterlimit:2;">
    <g transform="matrix(2.09836,0,0,1.77778,-358.82,-273.778)">
        <ellipse cx="201.5" cy="190" rx="30.5" ry="36" style="fill:url(#_Linear1);"/>
    </g>
    <g transform="matrix(1,0,0,1,14,-195)">
        <path d="M38.983,322.031L38.983,276.261L23.708,276.261L23.708,257.501L38.983,257.501L38.983,242.722C38.983,226.662 48.464,217.925 62.306,217.925C68.939,217.925 74.635,218.439 76.292,218.668L76.292,235.449L66.692,235.449C59.164,235.449 57.709,239.16 57.705,244.582L57.705,257.506L74.692,257.506L72.366,276.266L57.709,276.266L57.709,322.528C55.179,322.84 52.608,323 50,323C46.241,323 42.558,322.668 38.983,322.031Z" style="fill:url(#_Linear2);"/>
    </g>
    <defs>
        <linearGradient id="_Linear1" x1="0" y1="0" x2="1" y2="0" gradientUnits="userSpaceOnUse" gradientTransform="matrix(3.72172e-15,72,-60.5614,4.39285e-15,201.5,154)"><stop offset="0" style="stop-color:white;stop-opacity:1"/><stop offset="1" style="stop-color:rgb(255,255,252);stop-opacity:1"/></linearGradient>
        <linearGradient id="_Linear2" x1="0" y1="0" x2="1" y2="0" gradientUnits="userSpaceOnUse" gradientTransform="matrix(6.43401e-15,-105.075,209.966,1.28567e-14,50,323)"><stop offset="0" style="stop-color:rgb(2,147,224);stop-opacity:1"/><stop offset="1" style="stop-color:rgb(24,174,254);stop-opacity:1"/></linearGradient>
    </defs>
</svg>
