<?xml version="1.0" encoding="UTF-8" standalone="no"?>
<!DOCTYPE svg PUBLIC "-//W3C//DTD SVG 1.1//EN" "http://www.w3.org/Graphics/SVG/1.1/DTD/svg11.dtd">
<svg width="100%" height="100%" viewBox="0 0 367 261" version="1.1" xmlns="http://www.w3.org/2000/svg" xmlns:xlink="http://www.w3.org/1999/xlink" xml:space="preserve" xmlns:serif="http://www.serif.com/" style="fill-rule:evenodd;clip-rule:evenodd;stroke-linejoin:round;stroke-miterlimit:2;">
    <rect id="Artboard1" x="0" y="0" width="367" height="260.6" style="fill:none;"/>
    <g id="Artboard11" serif:id="Artboard1">
        <g transform="matrix(1.00228,0,0,1,-14.5133,-9.0344)">
            <g id="layer1">
                <g>
                    <g id="g1222" transform="matrix(2.447,0,0,-2.447,79.174,33.624)">
                        <path id="path1224" d="M123.2,-40.3C123.2,-13.3 89.7,8.6 48.4,8.6C7.1,8.6 -26.4,-13.4 -26.4,-40.3L-26.4,-43.2C-26.4,-71.8 2.9,-95 48.4,-95C94.2,-95 123.2,-71.8 123.2,-43.2L123.2,-40.3Z" style="fill:rgb(10,0,128);fill-rule:nonzero;"/>
                    </g>
                    <g id="g1226" transform="matrix(2.447,0,0,-2.447,77.933,33.615)">
                        <path id="path1228" d="M120.9,-40.3C120.9,-65.7 88.7,-86.3 49,-86.3C9.2,-86.3 -23,-65.7 -23,-40.3C-23,-14.9 9.2,5.7 48.9,5.7C88.7,5.8 120.9,-14.9 120.9,-40.3" style="fill:rgb(0,188,255);fill-rule:nonzero;"/>
                    </g>
                    <g id="g1230" transform="matrix(2.447,0,0,-2.447,36.507,27.337)">
                        <path id="path1232" d="M42,-28.3C42,-28.4 41.2,-29.1 41.7,-29.7C42.8,-31.2 46.3,-32 49.9,-31.2C52,-30.7 54.7,-28.6 57.3,-26.5C60.1,-24.2 63,-22 65.8,-21.1C68.8,-20.1 70.7,-20.6 72,-20.9C73.4,-21.3 75,-22.2 77.6,-24.2C82.5,-27.9 102.3,-45.2 105.7,-48.2C108.5,-47 120.7,-41.7 137.3,-38C135.9,-29.1 130.5,-21 122.3,-14.4C111,-19.2 97,-21.7 83.4,-15C83.3,-15 76,-11.5 68.7,-11.7C57.9,-11.9 53.2,-16.6 48.2,-21.6L42,-28.3Z" style="fill:white;fill-rule:nonzero;"/>
                    </g>
                    <g id="g1234" transform="matrix(2.447,0,0,-2.447,63.741,36.74)">
                        <path id="path1236" d="M93.8,-46.2C93.6,-46 70.6,-25.9 65.3,-21.9C62.3,-19.6 60.6,-19.1 58.8,-18.8C57.9,-18.7 56.6,-18.9 55.7,-19.1C53.3,-19.8 50.1,-21.9 47.3,-24.1C44.4,-26.4 41.6,-28.6 39.1,-29.2C35.8,-29.9 31.9,-29.1 30,-27.8C29.3,-27.3 28.7,-26.7 28.5,-26.2C27.8,-24.6 29.1,-23.4 29.3,-23.2L35.7,-16.3L37.9,-14.1C35.9,-14.4 34,-14.9 32.1,-15.4C29.8,-16.1 27.6,-16.7 25.3,-16.7C24.4,-16.7 19.4,-15.9 18.4,-15.6C12.7,-14.1 7.7,-12.5 0.1,-9C-8.9,-15.7 -15,-24.1 -16.7,-33.4C-15.4,-33.7 -13.3,-34.4 -12.4,-34.6C8.1,-39.2 14.4,-43.8 15.6,-44.8C16.9,-43.4 18.7,-42.5 20.7,-42.5C23,-42.5 25,-43.6 26.2,-45.4C27.4,-44.5 29,-43.7 31.1,-43.7C32,-43.7 33,-43.9 34,-44.2C36.3,-45 37.5,-46.5 38.1,-47.9C38.9,-47.5 39.8,-47.3 40.9,-47.3C42,-47.3 43.2,-47.5 44.3,-48C48.1,-49.6 48.7,-53.3 48.3,-56.1L49.1,-56.1C53.6,-56.1 57.2,-59.7 57.2,-64.2C57.2,-65.6 56.8,-66.9 56.2,-68C57.4,-68.7 60.5,-70.2 63.2,-69.9C65.4,-69.6 66.2,-68.9 66.5,-68.5C66.7,-68.2 66.9,-67.9 66.7,-67.6L60.9,-61.2C60.9,-61.2 59.9,-60.3 60.3,-60C60.6,-59.6 61.2,-60.2 61.6,-60.5C64.5,-63 68.1,-66.7 68.1,-66.7C68.2,-66.7 68.4,-67.2 69.7,-67.4C70.8,-67.6 72.9,-67.5 74.3,-66.3C74.7,-66 75,-65.6 75.3,-65.3L75.2,-65.4C76.7,-63.5 75,-61.6 75,-61.6L68.5,-54C68.5,-54 67.5,-53.1 67.9,-52.7C68.2,-52.4 68.8,-52.9 69.2,-53.2C71.3,-55 74.4,-58 77.2,-60.8C77.8,-61.2 80.3,-62.8 83.7,-60.6C85.7,-59.3 86.1,-57.6 86.1,-56.4C86,-54.8 84.7,-53.6 84.7,-53.6L75.5,-44.4C75.5,-44.4 74.5,-43.6 74.9,-43.1C75.2,-42.7 75.8,-43.3 76.2,-43.6C79.1,-46.1 87.1,-53.3 87.1,-53.3C87.2,-53.4 90,-55.3 93.3,-53.2C94.5,-52.4 95.3,-51.3 95.4,-49.9C95.5,-47.6 93.8,-46.2 93.8,-46.2" style="fill:white;fill-rule:nonzero;"/>
                    </g>
                    <g id="g1238" transform="matrix(2.447,0,0,-2.447,44.44,41.811)">
                        <path id="path1240" d="M57.1,-55.9C55.7,-55.9 54.1,-56.7 53.9,-56.6C53.8,-56.5 54,-56 54.1,-55.6C54.2,-55.3 56.1,-49.6 51.5,-47.7C48,-46.2 45.9,-47.9 45.1,-48.7C44.9,-48.9 44.8,-48.9 44.8,-48.6C44.7,-47.6 44.3,-44.8 41.3,-43.9C37,-42.6 34.2,-45.6 33.5,-46.7C33.2,-44.2 31.1,-42.3 28.6,-42.3C25.8,-42.3 23.6,-44.5 23.6,-47.3C23.6,-50.1 25.8,-52.3 28.6,-52.3C29.9,-52.3 31.2,-51.8 32.1,-50.9L32.1,-51.1C31.9,-52.3 31.5,-56.9 36.2,-58.7C38.1,-59.4 39.7,-58.9 41,-57.9C41.4,-57.6 41.5,-57.7 41.4,-58.1C41.2,-59.3 41.4,-61.7 44.9,-63.2C47.5,-64.3 49.1,-63.2 50.1,-62.2C50.5,-61.8 50.7,-61.9 50.7,-62.5C50.8,-65.9 53.6,-68.5 57,-68.5C60.5,-68.5 63.3,-65.7 63.3,-62.2C63.4,-58.7 60.6,-55.9 57.1,-55.9" style="fill:white;fill-rule:nonzero;"/>
                    </g>
                    <g id="g1242" transform="matrix(2.447,0,0,-2.447,44.44,47.076)">
                        <path id="path1244" d="M57.1,-65.9C53.9,-65.9 51.4,-63.4 51.3,-60.3C51.3,-60 51.3,-59.3 50.7,-59.3C50.5,-59.3 50.2,-59.4 50,-59.7C49.2,-60.4 48.3,-61 47,-61C46.4,-61 45.8,-60.9 45.1,-60.6C41.8,-59.2 41.7,-56.9 41.9,-56C41.9,-55.8 41.9,-55.5 41.8,-55.3L41.6,-55.1L41.4,-55.1C41.2,-55.1 41,-55.2 40.8,-55.3C39.8,-56 38.9,-56.3 38,-56.3C37.5,-56.3 37,-56.2 36.4,-56C32,-54.3 32.4,-50.1 32.6,-48.9C32.6,-48.6 32.6,-48.5 32.4,-48.3L32,-48.1L31.7,-48.4C30.8,-49.2 29.7,-49.7 28.5,-49.7C26,-49.7 23.9,-47.7 23.9,-45.1C23.9,-42.5 26,-40.5 28.5,-40.5C30.8,-40.5 32.7,-42.2 33,-44.5L33.2,-45.7L33.9,-44.7C34,-44.6 35.8,-41.8 39.2,-41.8C39.8,-41.8 40.5,-41.9 41.2,-42.1C43.9,-42.9 44.4,-45.4 44.4,-46.4C44.5,-47 44.9,-47 45,-47C45.2,-47 45.4,-46.9 45.5,-46.7C46,-46.2 47.1,-45.3 48.9,-45.3C49.7,-45.3 50.5,-45.5 51.4,-45.9C55.7,-47.7 53.7,-53.2 53.7,-53.3C53.3,-54.2 53.3,-54.6 53.7,-54.8L53.9,-54.9L54,-54.9C54.2,-54.9 54.4,-54.8 54.8,-54.7C55.4,-54.5 56.3,-54.2 57.1,-54.2C60.3,-54.2 63,-56.9 63,-60.1C62.9,-63.3 60.3,-65.9 57.1,-65.9M102.6,-39.6C95.5,-33.4 79.1,-19.1 74.7,-15.8C72.2,-13.9 70.4,-12.9 68.9,-12.4C68.2,-12.2 67.2,-12 66,-12C64.9,-12 63.7,-12.2 62.4,-12.6C59.5,-13.5 56.7,-15.8 53.9,-18L53.8,-18.1C51.2,-20.1 48.6,-22.3 46.5,-22.7C45.6,-22.9 44.7,-23 43.8,-23C41.5,-23 39.5,-22.3 38.8,-21.4C38.7,-21.2 38.8,-21 39,-20.6L39,-20.5L45.2,-13.8C50.1,-8.9 54.7,-4.3 65.3,-4L65.8,-4C72.4,-4 79,-7 79.8,-7.3C86,-10.3 92.4,-11.9 98.9,-11.9C105.6,-11.9 112.5,-10.2 119.8,-6.9C119,-6.2 118.1,-5.6 117.3,-4.9C111,-7.7 104.9,-9.1 99,-9.1C93,-9.1 87,-7.6 81.2,-4.8C80.9,-4.7 73.6,-1.2 66,-1.2L65.4,-1.2C56.5,-1.4 51.4,-4.6 48.1,-7.4C44.8,-7.5 42,-8.3 39.4,-9C37.1,-9.6 35.2,-10.2 33.3,-10.2C32.5,-10.2 31.1,-10.1 31,-10.1C28.8,-10 17.8,-7.3 9,-4C8.1,-4.6 7.2,-5.3 6.4,-6C15.5,-9.7 26.7,-12.6 30.2,-12.9C31.2,-13 32.2,-13.1 33.3,-13.1C35.6,-13.1 37.9,-12.4 40.2,-11.8C41.5,-11.4 43,-11 44.5,-10.7L43.3,-11.9L37,-18.8C36.5,-19.3 35.4,-20.7 36.1,-22.3C36.4,-23 37,-23.6 37.8,-24.2C39.3,-25.2 42,-25.9 44.5,-25.9C45.5,-25.9 46.4,-25.8 47.2,-25.6C49.9,-25 52.6,-22.8 55.6,-20.4C58,-18.5 61.3,-16.2 63.9,-15.5C64.6,-15.3 65.5,-15.2 66.2,-15.2L66.8,-15.2C68.5,-15.4 70.1,-16 73.1,-18.2C78.3,-22.1 101.4,-42.3 101.6,-42.5C101.6,-42.5 103.1,-43.8 103,-45.9C102.9,-47.1 102.3,-48.1 101.2,-48.8C100.2,-49.4 99.2,-49.7 98.2,-49.7C96.7,-49.7 95.6,-49 95.5,-48.9C95.4,-48.8 87.5,-41.6 84.6,-39.2C84.1,-38.8 83.7,-38.5 83.2,-38.5C83,-38.5 82.7,-38.6 82.6,-38.8C82.1,-39.4 82.7,-40.1 83.3,-40.7L92.5,-50C92.5,-50 93.6,-51.1 93.8,-52.5C93.9,-54 93.1,-55.3 91.6,-56.3C90.5,-57 89.4,-57.4 88.3,-57.4C86.9,-57.4 85.9,-56.8 85.7,-56.6L84.4,-55.3C82,-52.9 79.5,-50.5 77.7,-48.9C77,-48.4 76.5,-48 76,-48C75.8,-48 75.6,-48.1 75.4,-48.2C75.2,-48.4 75,-48.8 75.6,-49.5C75.8,-49.8 76.1,-50 76.1,-50L82.8,-57.6C82.9,-57.7 84.2,-59.3 82.9,-60.8L82.7,-61.1L82.1,-61.7C81,-62.6 79.4,-62.7 78.8,-62.7C78.5,-62.7 78.2,-62.7 77.9,-62.6C77.2,-62.5 76.8,-62.3 76.6,-62L76.5,-61.9C76.1,-61.5 72.7,-58.1 69.9,-55.7C69.5,-55.4 69.1,-55 68.6,-55C68.4,-55 68.2,-55.1 68,-55.3C67.4,-55.9 68.3,-56.8 68.6,-57.2L74.3,-63.5C74.3,-63.6 74.2,-63.7 74.1,-63.9C73.9,-64.2 73.2,-64.9 71.1,-65.1L70.3,-65.1C68.1,-65.1 65.9,-64.1 64.7,-63.4C65.2,-62.3 65.5,-61 65.5,-59.8C65.5,-55.1 61.7,-51.2 56.9,-51.2L56.6,-51.2C56.8,-49 56.5,-45 52.3,-43.2C51.1,-42.7 49.9,-42.4 48.7,-42.4C47.8,-42.4 46.9,-42.6 46.1,-42.9C45.2,-41.2 43.8,-40 41.9,-39.3C41,-39.2 40,-39 38.9,-39C37.2,-39 35.5,-39.5 34.1,-40.5C32.7,-38.8 30.6,-37.8 28.5,-37.8C26.6,-37.8 24.8,-38.6 23.4,-39.9C21.6,-38.5 14.5,-34 -4.4,-29.7C-5.3,-29.5 -7.4,-28.9 -8.7,-28.5C-8.9,-29.5 -9.1,-30.6 -9.2,-31.6C-9.2,-31.6 -5.7,-32.4 -5,-32.6C14.4,-36.9 20.8,-41.4 21.9,-42.2C21.5,-43.1 21.3,-44 21.3,-45C21.3,-49 24.6,-52.3 28.6,-52.3C29,-52.3 29.5,-52.3 29.9,-52.2C30.5,-55.1 32.4,-57.4 35.4,-58.5C36.3,-58.8 37.1,-59 38,-59C38.6,-59 39.1,-58.9 39.7,-58.8C40.2,-60.2 41.5,-61.9 44.2,-63C45.2,-63.4 46.1,-63.6 47.1,-63.6C47.9,-63.6 48.6,-63.5 49.3,-63.2C50.6,-66.4 53.7,-68.5 57.2,-68.5C59.5,-68.5 61.7,-67.6 63.3,-65.9C64.7,-66.7 67.6,-68.1 70.5,-68.1C70.9,-68.1 71.2,-68.1 71.6,-68C74.5,-67.6 75.9,-66.5 76.5,-65.6C76.6,-65.4 76.7,-65.3 76.8,-65.1C77.5,-65.3 78.2,-65.5 79.1,-65.5C80.7,-65.5 82.2,-65 83.8,-63.8C85.3,-62.7 86.4,-61.1 86.6,-59.8L86.6,-59.7C87.1,-59.8 87.6,-59.9 88.2,-59.9C89.9,-59.9 91.5,-59.4 93,-58.4C96,-56.4 96.5,-53.9 96.5,-52.2C97,-52.3 97.6,-52.4 98.1,-52.4C99.6,-52.4 101.2,-51.9 102.6,-51C104.5,-49.8 105.6,-48 105.7,-45.9C105.8,-44.5 105.5,-43 104.7,-41.8C109.7,-39.6 121.1,-35.5 134.6,-32.4C134.5,-31.4 134.4,-30.3 134.2,-29.3C117.8,-33 105.6,-38.2 102.6,-39.6" style="fill:rgb(10,0,128);fill-rule:nonzero;"/>
                    </g>
                </g>
            </g>
        </g>
    </g>
</svg>
