<?xml version="1.0" encoding="UTF-8" standalone="no"?>
<!DOCTYPE svg PUBLIC "-//W3C//DTD SVG 1.1//EN" "http://www.w3.org/Graphics/SVG/1.1/DTD/svg11.dtd">
<svg width="100%" height="100%" viewBox="0 0 955 440" version="1.1" xmlns="http://www.w3.org/2000/svg" xmlns:xlink="http://www.w3.org/1999/xlink" xml:space="preserve" xmlns:serif="http://www.serif.com/" style="fill-rule:evenodd;clip-rule:evenodd;stroke-linejoin:round;stroke-miterlimit:2;">
    <g transform="matrix(1,0,0,1,-33.3763,-582.523)">
        <g transform="matrix(1,0,0,1,33.3763,582.523)">
            <path d="M0.165,29.639C0.165,13.288 13.54,-0.088 29.891,-0.088L925.099,-0.088C941.451,-0.088 954.826,13.288 954.826,29.639L954.826,43.113L0.165,43.113L0.165,396.708L954.826,396.708L954.826,43.113L954.828,43.113L954.828,396.708L954.826,396.708L954.826,410.186C954.826,426.539 941.451,439.914 925.099,439.914L29.891,439.914C13.54,439.914 0.165,426.539 0.165,410.186L0.165,29.639Z" style="fill:rgb(240,169,41);"/>
        </g>
        <path d="M842.593,717.47C798.915,717.47 763.31,753.08 763.31,796.758C763.31,840.42 798.915,876.035 842.593,876.035C886.263,876.035 921.869,840.42 921.869,796.758C921.869,753.08 886.263,717.47 842.593,717.47Z" style="fill:rgb(226,28,42);"/>
        <path d="M189.115,717.47C145.433,717.47 109.823,753.08 109.823,796.758C109.823,840.42 145.433,876.035 189.115,876.035C232.777,876.035 268.388,840.42 268.388,796.758C268.388,753.08 232.777,717.47 189.115,717.47Z" style="fill:rgb(226,28,42);"/>
        <path d="M836.371,647.693C762.978,646.007 728.472,693.069 678.394,751.115L631.154,805.862L705.96,895.417C723.782,922.933 689.767,950.242 668.664,925.063L599.501,842.56L532.106,920.688C510.644,945.558 477.015,917.775 495.218,890.517L568.381,805.437L520.449,748.257L551.283,710.071L600.03,768.628L642.05,719.749C662.669,695.783 683.696,664.024 710.948,647.693L33.542,647.693L33.542,957.181L191.922,957.181C265.325,957.181 298.647,913.294 347.367,854.113L393.339,798.274L316.474,710.481C298.038,683.38 331.405,655.302 353.088,679.985L424.125,760.877L489.72,681.21C510.598,655.84 544.851,682.853 527.286,710.527L456.1,797.279L505.342,853.34L474.316,890.08L425.303,834.801L384.426,884.624C364.363,909.06 344.053,940.226 317.18,957.181L988.205,957.181L988.205,647.693L836.371,647.693ZM314.362,796.758C314.362,865.752 258.105,922.015 189.115,922.015C120.107,922.015 63.85,865.752 63.85,796.758C63.85,727.753 120.107,671.494 189.115,671.494C258.105,671.494 314.362,727.753 314.362,796.758ZM842.593,922.015C773.598,922.015 717.328,865.752 717.328,796.758C717.328,727.753 773.598,671.494 842.593,671.494C911.592,671.494 967.848,727.753 967.848,796.758C967.848,865.752 911.592,922.015 842.593,922.015Z" style="fill:rgb(226,28,42);"/>
    </g>
</svg>
