<?xml version="1.0" encoding="UTF-8" standalone="no"?>
<!DOCTYPE svg PUBLIC "-//W3C//DTD SVG 1.1//EN" "http://www.w3.org/Graphics/SVG/1.1/DTD/svg11.dtd">
<svg width="100%" height="100%" viewBox="0 0 27 32" version="1.1" xmlns="http://www.w3.org/2000/svg" xmlns:xlink="http://www.w3.org/1999/xlink" xml:space="preserve" xmlns:serif="http://www.serif.com/" style="fill-rule:evenodd;clip-rule:evenodd;stroke-linejoin:round;stroke-miterlimit:2;">
    <g transform="matrix(1,0,0,1,0.0282319,0)">
        <g id="g26">
            <g id="g24">
                <path id="path18" d="M23.675,7.876C24.053,5.464 23.673,3.823 22.368,2.337C20.932,0.701 18.338,0 15.019,0L5.384,0C4.706,0 4.128,0.494 4.022,1.164L0.01,26.604C-0.069,27.107 0.319,27.56 0.827,27.56L6.775,27.56L6.364,30.164C6.295,30.603 6.635,31 7.08,31L12.094,31C12.687,31 13.192,30.568 13.285,29.982L13.334,29.727L14.278,23.738L14.339,23.407C14.432,22.821 14.937,22.388 15.53,22.388L16.28,22.388C21.137,22.388 24.94,20.416 26.051,14.708C26.516,12.324 26.276,10.333 25.048,8.934C24.676,8.512 24.214,8.162 23.675,7.876" style="fill:rgb(0,156,222);fill-rule:nonzero;"/>
                <path id="path20" d="M23.675,7.876C24.053,5.464 23.673,3.823 22.368,2.337C20.932,0.701 18.338,0 15.019,0L5.384,0C4.706,0 4.128,0.494 4.022,1.164L0.01,26.604C-0.069,27.107 0.319,27.56 0.827,27.56L6.775,27.56L8.269,18.085L8.223,18.383C8.329,17.712 8.901,17.219 9.58,17.219L12.407,17.219C17.959,17.219 22.306,14.963 23.577,8.44C23.614,8.247 23.646,8.061 23.675,7.876" style="fill:rgb(1,33,105);fill-rule:nonzero;"/>
                <path id="path22" d="M9.875,7.908C9.938,7.505 10.197,7.175 10.545,7.008C10.703,6.932 10.88,6.89 11.066,6.89L18.619,6.89C19.514,6.89 20.348,6.949 21.111,7.072C21.329,7.107 21.541,7.147 21.747,7.193C21.953,7.238 22.153,7.289 22.347,7.346C22.444,7.374 22.539,7.404 22.633,7.435C23.008,7.56 23.357,7.706 23.677,7.876C24.055,5.464 23.675,3.823 22.37,2.337C20.932,0.701 18.338,0 15.019,0L5.384,0C4.706,0 4.128,0.494 4.022,1.164L0.01,26.604C-0.069,27.107 0.319,27.56 0.827,27.56L6.775,27.56L8.269,18.085L9.875,7.908Z" style="fill:rgb(0,48,135);fill-rule:nonzero;"/>
            </g>
        </g>
    </g>
</svg>
