<?xml version="1.0" encoding="UTF-8" standalone="no"?>
<!DOCTYPE svg PUBLIC "-//W3C//DTD SVG 1.1//EN" "http://www.w3.org/Graphics/SVG/1.1/DTD/svg11.dtd">
<svg width="100%" height="100%" viewBox="0 0 410 171" version="1.1" xmlns="http://www.w3.org/2000/svg" xmlns:xlink="http://www.w3.org/1999/xlink" xml:space="preserve" xmlns:serif="http://www.serif.com/" style="fill-rule:evenodd;clip-rule:evenodd;stroke-linejoin:round;stroke-miterlimit:2;">
    <g transform="matrix(1,0,0,1,0.00056919,0.00410862)">
        <path d="M26.1,72C21.542,72.067 17.018,71.209 12.8,69.48C9.102,67.962 5.894,65.453 3.53,62.23C1.205,58.969 -0.031,55.055 0,51.05L15.12,51.05C15.183,53.637 16.261,56.099 18.12,57.9C20.266,59.671 23.002,60.571 25.78,60.42C29.067,60.42 31.653,59.647 33.54,58.1C35.389,56.565 36.434,54.262 36.37,51.86C36.437,49.961 35.746,48.11 34.45,46.72C33.092,45.329 31.438,44.262 29.61,43.6C27.052,42.573 24.434,41.705 21.77,41C17.962,39.928 14.225,38.619 10.58,37.08C7.708,35.688 5.193,33.656 3.23,31.14C1.23,28.473 0.23,24.913 0.23,20.46C0.126,16.599 1.208,12.797 3.33,9.57C5.501,6.43 8.548,3.995 12.09,2.57C16.163,0.811 20.564,-0.065 25,0C32.253,0 38.13,1.78 42.63,5.34C47.13,8.9 49.65,13.787 50.19,20L34.67,20C34.577,17.653 33.43,15.469 31.55,14.06C29.406,12.377 26.721,11.531 24,11.68C21.601,11.565 19.24,12.318 17.35,13.8C15.663,15.378 14.773,17.635 14.93,19.94C14.879,21.694 15.531,23.398 16.74,24.67C18.102,25.93 19.672,26.945 21.38,27.67C23.26,28.41 25.88,29.283 29.24,30.29C33.062,31.351 36.801,32.688 40.43,34.29C43.362,35.662 45.921,37.72 47.89,40.29C49.963,43.043 51,46.613 51,51C51.019,54.696 50.008,58.326 48.08,61.48C46.004,64.814 43.035,67.499 39.51,69.23C35.317,71.186 30.725,72.135 26.1,72Z" style="fill:white;fill-rule:nonzero;"/>
        <path d="M296.62,72C291.974,72.069 287.361,71.212 283.05,69.48C279.298,67.971 276.029,65.464 273.6,62.23C271.238,58.983 269.977,55.065 270,51.05L285.42,51.05C285.492,53.652 286.601,56.12 288.5,57.9C290.701,59.676 293.485,60.575 296.31,60.42C299.67,60.42 302.31,59.65 304.22,58.1C306.096,56.582 307.162,54.273 307.1,51.86C307.153,49.948 306.432,48.093 305.1,46.72C303.708,45.322 302.02,44.256 300.16,43.6C297.549,42.565 294.877,41.69 292.16,40.98C288.28,39.908 284.469,38.599 280.75,37.06C277.83,35.678 275.264,33.646 273.25,31.12C271.19,28.453 270.163,24.893 270.17,20.44C270.082,16.576 271.193,12.777 273.35,9.57C275.585,6.417 278.693,3.983 282.29,2.57C286.463,0.803 290.959,-0.072 295.49,-0C302.89,0 308.89,1.78 313.49,5.34C318.09,8.9 320.653,13.787 321.18,20L305.35,20C305.243,17.643 304.072,15.457 302.17,14.06C299.973,12.357 297.236,11.497 294.46,11.64C292.021,11.522 289.617,12.274 287.68,13.76C285.966,15.323 285.055,17.585 285.21,19.9C285.164,21.661 285.832,23.367 287.06,24.63C288.454,25.893 290.054,26.907 291.79,27.63C293.7,28.37 296.38,29.24 299.79,30.25C303.683,31.311 307.496,32.648 311.2,34.25C314.177,35.612 316.784,37.67 318.8,40.25C320.933,43.03 322,46.613 322,51C322.011,54.706 320.971,58.341 319,61.48C316.869,64.826 313.845,67.51 310.27,69.23C305.991,71.183 301.322,72.131 296.62,72Z" style="fill:white;fill-rule:nonzero;"/>
        <path d="M77.33,11.48L77.33,29.22L104,29.22L104,40.7L77.33,40.7L77.33,60.52L104,60.52L104,72L64,72L64,0L104,0L104,11.48L77.33,11.48Z" style="fill:white;fill-rule:nonzero;"/>
        <path d="M230.33,11.48L230.33,29.22L257,29.22L257,40.7L230.33,40.7L230.33,60.52L257,60.52L257,72L217,72L217,0L257,0L257,11.48L230.33,11.48Z" style="fill:white;fill-rule:nonzero;"/>
        <path d="M229.33,109.48L229.33,127.22L256,127.22L256,138.7L229.33,138.7L229.33,158.52L256,158.52L256,170L216,170L216,98L256,98L256,109.48L229.33,109.48Z" style="fill:white;fill-rule:nonzero;"/>
        <path d="M203,98L203,109.66L184.47,109.66L184.47,170L170.53,170L170.53,109.66L152,109.66L152,98L203,98Z" style="fill:white;fill-rule:nonzero;"/>
        <path d="M269,134.05C268.888,127.563 270.471,121.158 273.59,115.47C276.553,110.113 280.933,105.674 286.25,102.64C291.747,99.518 297.979,97.916 304.3,98C311.576,97.851 318.721,99.97 324.74,104.06C330.592,108.11 334.913,114.016 337,120.82L321,120.82C319.579,117.656 317.209,115.01 314.22,113.25C311.177,111.517 307.721,110.642 304.22,110.72C300.394,110.659 296.627,111.674 293.35,113.65C290.174,115.589 287.614,118.392 285.97,121.73C284.166,125.581 283.279,129.798 283.38,134.05C283.303,138.303 284.199,142.517 286,146.37C287.657,149.725 290.212,152.557 293.38,154.55C296.679,156.463 300.437,157.441 304.25,157.38C307.751,157.463 311.209,156.588 314.25,154.85C317.229,153.033 319.592,150.359 321.03,147.18L337,147.18C334.926,154.007 330.604,159.936 324.74,164C318.709,168.06 311.568,170.156 304.3,170C297.991,170.088 291.767,168.523 286.25,165.46C280.961,162.39 276.589,157.959 273.59,152.63C270.469,146.942 268.887,140.537 269,134.05Z" style="fill:white;fill-rule:nonzero;"/>
        <path d="M409,98L409,170L394.73,170L394.73,139.36L364.27,139.36L364.27,170L350,170L350,98L364.27,98L364.27,127.61L394.73,127.61L394.73,98L409,98Z" style="fill:white;fill-rule:nonzero;"/>
        <path d="M203.25,72L130.62,72L117,45L117,0L189.63,0L189.63,45L203.25,72ZM130.62,13.5L130.62,45L137.43,58.5L182.82,58.5L176,45L176,13.5L130.62,13.5Z" style="fill:white;fill-rule:nonzero;"/>
        <path d="M189.5,0L203.25,0L203.25,45L217,72L203.25,72L189.5,45L189.5,0Z" style="fill:white;fill-opacity:0.5;fill-rule:nonzero;"/>
    </g>
</svg>
