<?xml version="1.0" encoding="UTF-8" standalone="no"?>
<!DOCTYPE svg PUBLIC "-//W3C//DTD SVG 1.1//EN" "http://www.w3.org/Graphics/SVG/1.1/DTD/svg11.dtd">
<svg width="100%" height="100%" viewBox="0 0 457 73" version="1.1" xmlns="http://www.w3.org/2000/svg" xmlns:xlink="http://www.w3.org/1999/xlink" xml:space="preserve" xmlns:serif="http://www.serif.com/" style="fill-rule:evenodd;clip-rule:evenodd;stroke-linejoin:round;stroke-miterlimit:2;">
    <g id="Artboard1" transform="matrix(3.04667,0,0,1,0,0)">
        <rect x="0" y="0" width="150" height="72.5" style="fill:none;"/>
        <clipPath id="_clip1">
            <rect x="0" y="0" width="150" height="72.5"/>
        </clipPath>
        <g clip-path="url(#_clip1)">
            <g transform="matrix(0.328228,0,0,1,0,0)">
                <path d="M86.25,72.5L13.62,72.5L0,45.31L0,0L72.63,0L72.63,45.31L86.25,72.5ZM13.62,13.59L13.62,45.31L20.43,58.91L65.82,58.91L59,45.31L59,13.59L13.62,13.59Z" style="fill:rgb(60,144,252);fill-rule:nonzero;"/>
            </g>
            <g transform="matrix(0.328228,0,0,1,0,0)">
                <path d="M72.5,0L86.25,0L86.25,45.31L100,72.5L86.25,72.5L72.5,45.31L72.5,0Z" style="fill:rgb(60,144,252);fill-opacity:0.5;fill-rule:nonzero;"/>
            </g>
            <g transform="matrix(0.328228,0,0,1,9.02626,0)">
                <path d="M72.5,0L86.25,0L86.25,45.31L100,72.5L86.25,72.5L72.5,45.31L72.5,0Z" style="fill:rgb(60,144,252);fill-opacity:0.5;fill-rule:nonzero;"/>
            </g>
            <g transform="matrix(0.328228,0,0,1,18.0525,0)">
                <path d="M72.5,0L86.25,0L86.25,45.31L100,72.5L86.25,72.5L72.5,45.31L72.5,0Z" style="fill:rgb(60,144,252);fill-opacity:0.5;fill-rule:nonzero;"/>
            </g>
            <g transform="matrix(0.328228,0,0,1,-20.288,15.1126)">
                <text x="210.336px" y="57.387px" style="font-family:'Roboto-Bold', 'Roboto';font-weight:700;font-size:102px;fill:rgb(60,144,252);">P<tspan x="267.263px " y="57.387px ">A</tspan>NEL</text>
            </g>
        </g>
    </g>
</svg>
